Coordinates
version=1
nRows=12
nColumns=46
inDegrees=yes

Units are S.I. units (second, meters, Newtons, ...)
Angles are in degrees.

endheader
time	pelvis_tilt	pelvis_list	pelvis_rotation	pelvis_tx	pelvis_ty	pelvis_tz	bb_angle	bb_tx	bb_ty	bb_tz	hip_flexion_r	hip_adduction_r	hip_rotation_r	knee_angle_r	knee_angle_r_beta	ankle_angle_r	subtalar_angle_r	mtp_angle_r	crank_angle_r	hip_flexion_l	hip_adduction_l	hip_rotation_l	knee_angle_l	knee_angle_l_beta	ankle_angle_l	subtalar_angle_l	mtp_angle_l	crank_angle_l	lumbar_extension	lumbar_bending	lumbar_rotation	arm_flex_r	arm_add_r	arm_rot_r	elbow_flex_r	pro_sup_r	wrist_flex_r	wrist_dev_r	arm_flex_l	arm_add_l	arm_rot_l	elbow_flex_l	pro_sup_l	wrist_flex_l	wrist_dev_l
      0.00000000	    -24.51215487	     -0.29898630	     -2.31441907	      0.01991228	      1.01770329	     -0.21930823	      0.00000000	      0.50000000	      0.00000000	      0.25000000	     81.32406666	     -5.00440759	     -3.42522405	     60.14106562	      1.04965961	      8.42178396	     -1.81929445	      0.00000000	      0.00000000	     61.95138158	     -7.50857014	      0.08684266	     75.07387652	      1.31028633	      7.51927963	    -11.32818793	      0.00000000	      0.00000000	    -42.36601736	      0.59252526	      1.47183332	     89.67127170	     -2.87740421	     27.92822669	     38.86797724	     24.88691680	      0.00000000	      0.00000000	     89.22285149	    -12.88511500	     31.79740551	     38.89566353	     25.35805164	      0.00000000	      0.00000000
      0.00500000	    -24.45943525	     -0.40948840	     -2.22971641	      0.01994209	      1.01784420	     -0.21946549	      0.00000000	      0.50000000	      0.00000000	      0.25000000	     81.22793021	     -5.07665557	     -3.56926096	     60.13585609	      1.04956869	      8.46260459	     -1.82654931	      0.00000000	      0.00000000	     61.91318183	     -7.48369597	      0.23710335	     75.05839780	      1.31001617	      7.53553801	    -11.29635274	      0.00000000	      0.00000000	    -42.44882413	      0.76712981	      1.45717608	     89.67383999	     -2.69941924	     27.56557935	     38.67639058	     25.76899965	      0.00000000	      0.00000000	     89.22402254	    -12.83845775	     31.36972018	     38.65138459	     26.24506909	      0.00000000	      0.00000000
      0.01000000	    -24.52595795	     -0.39778778	     -2.26362518	      0.01992063	      1.01766703	     -0.21939842	      0.00000000	      0.50000000	      0.00000000	      0.25000000	     81.32451881	     -5.03154611	     -3.52768184	     60.16205188	      1.05002589	      8.42782062	     -1.88374678	      0.00000000	      0.00000000	     61.98889304	     -7.51622027	      0.22123304	     75.09857401	      1.31071738	      7.90734796	    -11.17473823	      0.00000000	      0.00000000	    -42.34676669	      0.73839444	      1.57678873	     89.66927214	     -2.81154819	     27.50455990	     38.58544432	     26.59044352	      0.00000000	      0.00000000	     89.25561601	    -12.68752705	     31.60081442	     38.05137063	     27.07378757	      0.00000000	      0.00000000
      0.01500000	    -24.60172033	     -0.34827024	     -2.30503140	      0.01986258	      1.01761666	     -0.21950222	      0.00000000	      0.50000000	      0.00000000	      0.25000000	     81.40706179	     -5.02596269	     -3.49275049	     60.11720067	      1.04924309	      8.37071978	     -1.86347141	      0.00000000	      0.00000000	     62.02691680	     -7.48378952	      0.19432039	     75.08226122	      1.31043267	      8.02721055	    -11.93663787	      0.00000000	      0.00000000	    -42.25626402	      0.69046757	      1.59873539	     89.67212424	     -2.80098796	     27.40923433	     38.36937635	     27.63119537	      0.00000000	      0.00000000	     89.25448283	    -12.61761275	     31.55086877	     37.74863480	     28.21256532	      0.00000000	      0.00000000
      0.02000000	    -24.64468653	     -0.45385588	     -2.31002241	      0.01972877	      1.01713054	     -0.21930570	      0.00000000	      0.50000000	      0.00000000	      0.25000000	     81.52578192	     -4.96214431	     -3.53495971	     60.24061281	      1.05139704	      8.34872316	     -1.89350998	      0.00000000	      0.00000000	     62.05066717	     -7.53071031	      0.34281844	     75.02296196	      1.30939770	      8.07861088	    -11.88802376	      0.00000000	      0.00000000	    -42.17595469	      0.74924475	      1.66557836	     89.66726874	     -2.87922071	     27.67868981	     38.21397612	     27.95583748	      0.00000000	      0.00000000	     89.28048447	    -12.60012142	     31.81975896	     37.46009538	     28.67200573	      0.00000000	      0.00000000
      0.02500000	    -24.60375116	     -0.53948086	     -2.29492257	      0.01973675	      1.01728868	     -0.21927273	      0.00000000	      0.50000000	      0.00000000	      0.25000000	     81.44250938	     -4.95539753	     -3.63199969	     60.21188003	      1.05089556	      8.40360959	     -1.84659759	      0.00000000	      0.00000000	     61.98515264	     -7.56474898	      0.41865047	     74.96134484	      1.30832228	      8.01990324	    -11.93385881	      0.00000000	      0.00000000	    -42.27412049	      0.84030265	      1.68688615	     89.66969030	     -2.76246795	     27.47293563	     38.07446513	     28.87814437	      0.00000000	      0.00000000	     89.26083273	    -12.62705343	     31.34335935	     37.65978073	     29.72254286	      0.00000000	      0.00000000
      0.03000000	    -24.65779008	     -0.48981217	     -2.31103363	      0.01970956	      1.01712205	     -0.21919082	      0.00000000	      0.50000000	      0.00000000	      0.25000000	     81.54627173	     -4.96323470	     -3.60707123	     60.26101813	      1.05175318	      8.40178465	     -1.86325481	      0.00000000	      0.00000000	     62.02752541	     -7.55297816	      0.36331534	     74.95229305	      1.30816430	      8.03955171	    -11.86833804	      0.00000000	      0.00000000	    -42.17280211	      0.77321590	      1.63885825	     89.67126908	     -2.78388048	     27.64913273	     37.83665834	     29.51569183	      0.00000000	      0.00000000	     89.27139100	    -12.60542682	     31.49627545	     37.19245388	     30.49479635	      0.00000000	      0.00000000
      0.03500000	    -24.66054234	     -0.49503710	     -2.30957048	      0.01965472	      1.01709564	     -0.21916381	      0.00000000	      0.50000000	      0.00000000	      0.25000000	     81.55766882	     -4.94427253	     -3.56160616	     60.27640570	      1.05202174	      8.41675343	     -1.85405265	      0.00000000	      0.00000000	     62.03244276	     -7.54351676	      0.38644008	     74.94439514	      1.30802645	      8.03739086	    -11.86399252	      0.00000000	      0.00000000	    -42.16155336	      0.77921512	      1.64599022	     89.67025655	     -2.79489825	     27.64334502	     37.69975762	     30.25859919	      0.00000000	      0.00000000	     89.27645913	    -12.61290826	     31.39501841	     37.01923520	     31.41757964	      0.00000000	      0.00000000
      0.04000000	    -24.68214032	     -0.49533127	     -2.34066546	      0.01965908	      1.01706451	     -0.21903963	      0.00000000	      0.50000000	      0.00000000	      0.25000000	     81.59357236	     -4.90174301	     -3.55338226	     60.30628540	      1.05254324	      8.43822357	     -1.87450041	      0.00000000	      0.00000000	     62.02082327	     -7.57423004	      0.37680347	     74.89386007	      1.30714445	      8.06173277	    -11.81110690	      0.00000000	      0.00000000	    -42.14679236	      0.76413556	      1.76661288	     89.67064979	     -2.92132803	     27.61539661	     37.54268341	     32.04141706	      0.00000000	      0.00000000	     89.28045415	    -12.50458759	     31.17291612	     36.53737972	     33.45429128	      0.00000000	      0.00000000
      0.04500000	    -24.58202505	     -0.65625886	     -2.30063521	      0.01967865	      1.01717071	     -0.21908596	      0.00000000	      0.50000000	      0.00000000	      0.25000000	     81.45071408	     -4.91232929	     -3.73586404	     60.32341012	      1.05284212	      8.59895098	     -1.82226049	      0.00000000	      0.00000000	     61.97388587	     -7.64932814	      0.51442573	     74.93896634	      1.30793170	      7.98719761	    -11.92564609	      0.00000000	      0.00000000	    -42.32197576	      0.90328808	      1.73915247	     89.66845302	     -2.82615093	     27.17624923	     37.63892343	     32.66154201	      0.00000000	      0.00000000	     89.23319374	    -12.60211704	     30.46100037	     37.12178430	     34.14525792	      0.00000000	      0.00000000
      0.05000000	    -24.66723595	     -0.54210298	     -2.29388827	      0.01963831	      1.01703585	     -0.21911412	      0.00000000	      0.50000000	      0.00000000	      0.25000000	     81.57967620	     -4.96472970	     -3.62761599	     60.32887340	      1.05293747	      8.51668413	     -1.74703079	      0.00000000	      0.00000000	     62.02103012	     -7.54449990	      0.44268987	     74.88175494	      1.30693317	      7.96134044	    -11.94878161	      0.00000000	      0.00000000	    -42.15655973	      0.80905465	      1.58098854	     89.67772919	     -2.60742833	     27.19887856	     36.99585725	     33.02025725	      0.00000000	      0.00000000	     89.24220172	    -12.58106197	     30.40495503	     36.67909209	     34.62236342	      0.00000000	      0.00000000
      0.05500000	    -24.66715149	     -0.52749379	     -2.29551552	      0.01964902	      1.01701427	     -0.21909822	      0.00000000	      0.50000000	      0.00000000	      0.25000000	     81.59797413	     -4.97852024	     -3.62565250	     60.36366828	      1.05354476	      8.54444143	     -1.72632863	      0.00000000	      0.00000000	     61.99637721	     -7.53210478	      0.42106268	     74.84781975	      1.30634089	      8.00270736	    -11.93587088	      0.00000000	      0.00000000	    -42.14788770	      0.79350638	      1.57002644	     89.67618114	     -2.60060104	     27.20185197	     36.92147232	     33.33957307	      0.00000000	      0.00000000	     89.25311198	    -12.56703532	     30.37791168	     36.50980136	     35.02629616	      0.00000000	      0.00000000
